<?xml version="1.0" encoding="UTF-8"?>
<svg id="Camada_1" xmlns="http://www.w3.org/2000/svg" version="1.1" viewBox="0 0 1199 433">
  <!-- Generator: Adobe Illustrator 30.0.0, SVG Export Plug-In . SVG Version: 2.1.1 Build 123)  -->
  <defs>
    <style>
      .st0 {
        fill: #004add;
        fill-rule: evenodd;
      }
    </style>
  </defs>
  <path class="st0" d="M1155,422.5h-9l-.5-.5-.5-.5h-4l-.5-.5-.5-.5h-3l-.5-.5-.5-.5h-1l-.5-.5-.5-.5h-1l-.5-.5-.5-.5h-1l-.5-.5-.5-.5h-1l-.5-.5-.5-.5-.5-.5-.5-.5h-1l-.5-.5-.5-.5-.5-.5-.5-.5-.5-.5-.5-.5-.5-.5-.5-.5-.5-.5-.5-.5-.5-.5v-1l-.5-.5-.5-.5-.5-.5-.5-.5-.5-.5-.5-.5v-1l-.5-.5-.5-.5v-1l-.5-.5-.5-.5-.5-.5-.5-.5-.5-.5-.5.5-.5.5h-1l-.5.5-.5.5h-1l-.5.5-.5.5h-1l-.5.5-.5.5h-1l-.5.5-.5.5h-1l-.5.5-.5.5h-1l-.5.5-.5.5-.5.5-.5.5h-2l-.5.5-.5.5h-1l-.5.5-.5.5h-1l-.5.5-.5.5h-2l-.5.5-.5.5h-1l-.5.5-.5.5h-2l-.5.5-.5.5h-2l-.5.5-.5.5h-2l-.5.5-.5.5h-3l-.5.5-.5.5h-2l-.5.5-.5.5h-3l-.5.5-.5.5h-4l-.5.5-.5.5h-5l-.5.5-.5.5h-7l-.5.5-.5.5h-27l-.5-.5-.5-.5h-11l-.5-.5-.5-.5h-4l-.5-.5-.5-.5h-4l-.5-.5-.5-.5h-3l-.5-.5-.5-.5h-3l-.5-.5-.5-.5h-2l-.5-.5-.5-.5h-2l-.5-.5-.5-.5h-2l-.5-.5-.5-.5h-2l-.5-.5-.5-.5h-1l-.5-.5-.5-.5h-2l-.5-.5-.5-.5h-1l-.5-.5-.5-.5h-1l-.5-.5-.5-.5h-2l-.5-.5-.5-.5h-1l-.5-.5-.5-.5h-1l-.5-.5-.5-.5h-1l-.5-.5-.5-.5h-1l-.5-.5-.5-.5h-1l-.5-.5-.5-.5-.5-.5-.5-.5h-1l-.5-.5-.5-.5h-1l-.5-.5-.5-.5h-1l-.5-.5-.5-.5-.5-.5-.5-.5h-1l-.5-.5-.5-.5-.5-.5-.5-.5-.5-.5-.5-.5h-1l-.5-.5-.5-.5-.5-.5-.5-.5h-1l-.5-.5-.5-.5-.5-.5-.5-.5-.5-.5-.5-.5h-1l-.5-.5-.5-.5-.5-.5-.5-.5-.5-.5-.5-.5-.5-.5-.5-.5-.5-.5-.5-.5h-1l-.5-.5-.5-.5-.5-.5-.5-.5-.5-.5-.5-.5-.5-.5-.5-.5-.5-.5-.5-.5-.5-.5-.5-.5-.5-.5-.5-.5-.5-.5-.5-.5-.5-.5-.5-.5-.5-.5-.5-.5-.5-.5-.5-.5-.5-.5-.5-.5-.5-.5-.5-.5-.5-.5-.5-.5-.5-.5v-1l-.5-.5-.5-.5-.5-.5-.5-.5-.5-.5-.5-.5-.5-.5-.5-.5-.5-.5-.5-.5v-1l-.5-.5-.5-.5-.5-.5-.5-.5-.5-.5-.5-.5v-1l-.5-.5-.5-.5-.5-.5-.5-.5v-1l-.5-.5-.5-.5-.5-.5-.5-.5v-1l-.5-.5-.5-.5-.5-.5-.5-.5v-1l-.5-.5-.5-.5-.5-.5-.5-.5v-1l-.5-.5-.5-.5v-1l-.5-.5-.5-.5v-1l-.5-.5-.5-.5v-1l-.5-.5-.5-.5v-1l-.5-.5-.5-.5v-1l-.5-.5-.5-.5v-1l-.5-.5-.5-.5v-1l-.5-.5-.5-.5v-1l-.5-.5-.5-.5v-2l-.5-.5-.5-.5v-1l-.5-.5-.5-.5v-2l-.5-.5-.5-.5v-2l-.5-.5-.5-.5v-1l-.5-.5-.5-.5v-3l-.5-.5-.5-.5v-1l-.5-.5-.5-.5v-3l-.5-.5-.5-.5v-3l-.5-.5-.5-.5v-4l-.5-.5-.5-.5v-4l-.5-.5-.5-.5v-9l-.5-.5-.5-.5v-24l.5-.5.5-.5v-10l.5-.5.5-.5v-4l.5-.5.5-.5v-4l.5-.5.5-.5v-3l.5-.5.5-.5v-2l.5-.5.5-.5v-2l.5-.5.5-.5v-2l.5-.5.5-.5v-2l.5-.5.5-.5v-2l.5-.5.5-.5v-2l.5-.5.5-.5v-1l.5-.5.5-.5v-1l.5-.5.5-.5v-2l.5-.5.5-.5v-1l.5-.5.5-.5v-1l.5-.5.5-.5v-1l.5-.5.5-.5v-1l.5-.5.5-.5v-1l.5-.5.5-.5.5-.5.5-.5v-1l.5-.5.5-.5v-1l.5-.5.5-.5v-1l.5-.5.5-.5.5-.5.5-.5v-1l.5-.5.5-.5.5-.5.5-.5v-1l.5-.5.5-.5.5-.5.5-.5v-1l.5-.5.5-.5.5-.5.5-.5.5-.5.5-.5v-1l.5-.5.5-.5.5-.5.5-.5.5-.5.5-.5v-1l.5-.5.5-.5.5-.5.5-.5.5-.5.5-.5.5-.5.5-.5.5-.5.5-.5v-1l.5-.5.5-.5.5-.5.5-.5.5-.5.5-.5.5-.5.5-.5.5-.5.5-.5.5-.5.5-.5.5-.5.5-.5.5-.5.5-.5.5-.5.5-.5.5-.5.5-.5.5-.5.5-.5.5-.5.5-.5.5-.5h1l.5-.5.5-.5.5-.5.5-.5.5-.5.5-.5.5-.5.5-.5.5-.5.5-.5h1l.5-.5.5-.5.5-.5.5-.5.5-.5.5-.5h1l.5-.5.5-.5.5-.5.5-.5h1l.5-.5.5-.5.5-.5.5-.5.5-.5.5-.5h1l.5-.5.5-.5.5-.5.5-.5h1l.5-.5.5-.5h1l.5-.5.5-.5h1l.5-.5.5-.5.5-.5.5-.5h1l.5-.5.5-.5h1l.5-.5.5-.5h1l.5-.5.5-.5h1l.5-.5.5-.5h1l.5-.5.5-.5h1l.5-.5.5-.5h1l.5-.5.5-.5h1l.5-.5.5-.5h2l.5-.5.5-.5h1l.5-.5.5-.5h2l.5-.5.5-.5h2l.5-.5.5-.5h2l.5-.5.5-.5h2l.5-.5.5-.5h2l.5-.5.5-.5h4l.5-.5.5-.5h4l.5-.5.5-.5h5l.5-.5.5-.5h4l.5-.5.5-.5h35l.5.5.5.5h6l.5.5.5.5h5l.5.5.5.5h4l.5.5.5.5h3l.5.5.5.5h2l.5.5.5.5h3l.5.5.5.5h2l.5.5.5.5h2l.5.5.5.5h2l.5.5.5.5h1l.5.5.5.5h2l.5.5.5.5h1l.5.5.5.5h1l.5.5.5.5h1l.5.5.5.5h2l.5.5.5.5.5.5.5.5h2l.5.5.5.5.5.5.5.5h1l.5.5.5.5h1l.5.5.5.5h1l.5.5.5.5.5.5.5.5h1l.5.5.5.5h1l.5.5.5.5.5.5.5.5h1l.5.5.5.5.5.5.5.5h1l.5.5.5.5.5.5.5.5.5.5.5.5h1l.5.5.5.5.5.5.5.5.5.5.5.5h1l.5.5.5.5.5.5.5.5.5.5.5.5.5.5.5.5.5.5.5.5.5.5.5.5.5.5.5.5h1l.5.5v1l.5.5h1l.5.5.5.5.5.5.5.5.5.5.5.5.5.5v1l.5.5.5.5.5.5.5.5.5.5.5.5.5.5.5.5.5.5.5.5.5.5.5.5.5.5.5.5.5.5.5.5v1l.5.5.5.5.5.5.5.5.5.5.5.5v1l.5.5.5.5.5.5.5.5.5.5.5.5v1l.5.5.5.5.5.5.5.5v1l.5.5.5.5.5.5.5.5v1l.5.5.5.5.5.5.5.5v1l.5.5.5.5v1l.5.5.5.5.5.5.5.5v1l.5.5.5.5v1l.5.5.5.5v1l.5.5.5.5v1l.5.5.5.5v1l.5.5.5.5v1l.5.5.5.5v2l.5.5.5.5v1l.5.5.5.5v1l.5.5.5.5v2l.5.5.5.5v2l.5.5.5.5v1l.5.5.5.5v2l.5.5.5.5v2l.5.5.5.5v3l.5.5.5.5v3l.5.5.5.5v3l.5.5.5.5v4l.5.5.5.5v7l.5.5.5.5v9l.5.5.5.5v125l-.5.5-.5.5v4l-.5.5-.5.5v2l-.5.5-.5.5v2l-.5.5-.5.5v1l-.5.5-.5.5v1l-.5.5-.5.5-.5.5-.5.5v1l-.5.5-.5.5-.5.5-.5.5v1l-.5.5-.5.5-.5.5-.5.5-.5.5-.5.5-.5.5-.5.5-.5.5h-1l-.5.5-.5.5-.5.5-.5.5-.5.5-.5.5h-1l-.5.5-.5.5h-1l-.5.5-.5.5h-1l-.5.5-.5.5h-1l-.5.5-.5.5h-2l-.5.5-.5.5h-4l-.5.5-.5.5ZM487,421.5h-28l-.5-.5-.5-.5h-7l-.5-.5-.5-.5h-4l-.5-.5-.5-.5h-5l-.5-.5-.5-.5h-3l-.5-.5-.5-.5h-3l-.5-.5-.5-.5h-1l-.5-.5-.5-.5h-3l-.5-.5-.5-.5h-2l-.5-.5-.5-.5h-2l-.5-.5-.5-.5h-2l-.5-.5-.5-.5h-1l-.5-.5-.5-.5h-1l-.5-.5-.5-.5h-1l-.5-.5-.5-.5h-2l-.5-.5-.5-.5h-1l-.5-.5-.5-.5h-1l-.5-.5-.5-.5h-1l-.5-.5-.5-.5h-1l-.5-.5-.5-.5h-1l-.5-.5-.5-.5-.5-.5-.5-.5h-1l-.5-.5-.5-.5h-1l-.5-.5-.5-.5h-1l-.5-.5-.5-.5-.5-.5-.5-.5h-1l-.5-.5-.5-.5-.5-.5-.5-.5h-1l-.5-.5-.5-.5-.5-.5-.5-.5-.5-.5-.5-.5h-1l-.5-.5-.5-.5-.5-.5-.5-.5-.5-.5-.5-.5h-1l-.5-.5-.5-.5-.5-.5-.5-.5-.5-.5-.5-.5h-1l-.5-.5-.5-.5-.5-.5-.5-.5-.5-.5-.5-.5-.5-.5-.5-.5-.5-.5-.5-.5-.5-.5-.5-.5-.5-.5-.5-.5-.5-.5-.5-.5-.5-.5-.5-.5-.5-.5-.5-.5-.5-.5-.5-.5-.5-.5-.5-.5-.5-.5-.5-.5-.5-.5-.5-.5-.5-.5-.5-.5-.5-.5-.5-.5-.5-.5-.5-.5-.5-.5v-1l-.5-.5-.5-.5-.5-.5-.5-.5-.5-.5-.5-.5-.5-.5-.5-.5v-1l-.5-.5-.5-.5-.5-.5-.5-.5-.5-.5-.5-.5v-1l-.5-.5-.5-.5-.5-.5-.5-.5v-1l-.5-.5-.5-.5-.5-.5-.5-.5v-1l-.5-.5-.5-.5-.5-.5-.5-.5v-1l-.5-.5-.5-.5v-1l-.5-.5-.5-.5-.5-.5-.5-.5v-1l-.5-.5-.5-.5v-1l-.5-.5-.5-.5v-1l-.5-.5-.5-.5v-1l-.5-.5-.5-.5v-1l-.5-.5-.5-.5v-1l-.5-.5-.5-.5v-1l-.5-.5-.5-.5v-2l-.5-.5-.5-.5v-1l-.5-.5-.5-.5v-2l-.5-.5-.5-.5v-1l-.5-.5-.5-.5v-2l-.5-.5-.5-.5v-2l-.5-.5-.5-.5v-3l-.5-.5-.5-.5v-2l-.5-.5-.5-.5v-2l-.5-.5-.5-.5v-3l-.5-.5-.5-.5v-4l-.5-.5-.5-.5v-5l-.5-.5-.5-.5v-8l-.5-.5-.5-.5v-24l.5-.5.5-.5v-8l.5-.5.5-.5v-5l.5-.5.5-.5v-3l.5-.5.5-.5v-3l.5-.5.5-.5v-2l.5-.5.5-.5v-3l.5-.5.5-.5v-2l.5-.5.5-.5v-2l.5-.5.5-.5v-2l.5-.5.5-.5v-1l.5-.5.5-.5v-1l.5-.5.5-.5v-1l.5-.5.5-.5v-2l.5-.5.5-.5v-1l.5-.5.5-.5v-2l.5-.5.5-.5v-1l.5-.5.5-.5v-1l.5-.5.5-.5.5-.5.5-.5v-1l.5-.5.5-.5v-1l.5-.5.5-.5v-1l.5-.5.5-.5.5-.5.5-.5v-1l.5-.5.5-.5v-1l.5-.5.5-.5.5-.5.5-.5v-1l.5-.5.5-.5.5-.5.5-.5v-1l.5-.5.5-.5.5-.5.5-.5.5-.5.5-.5v-1l.5-.5.5-.5.5-.5.5-.5.5-.5.5-.5v-1l.5-.5.5-.5.5-.5.5-.5.5-.5.5-.5.5-.5.5-.5.5-.5.5-.5v-1l.5-.5.5-.5.5-.5.5-.5.5-.5.5-.5.5-.5.5-.5.5-.5.5-.5.5-.5.5-.5.5-.5.5-.5.5-.5.5-.5.5-.5.5-.5.5-.5.5-.5.5-.5.5-.5.5-.5.5-.5.5-.5.5-.5.5-.5h1l.5-.5.5-.5.5-.5.5-.5.5-.5.5-.5.5-.5.5-.5.5-.5.5-.5h1l.5-.5.5-.5.5-.5.5-.5h1l.5-.5.5-.5.5-.5.5-.5.5-.5.5-.5.5-.5.5-.5h1l.5-.5.5-.5h1l.5-.5.5-.5.5-.5.5-.5h1l.5-.5.5-.5.5-.5.5-.5h1l.5-.5.5-.5h1l.5-.5.5-.5h1l.5-.5.5-.5.5-.5.5-.5h2l.5-.5.5-.5.5-.5.5-.5h2l.5-.5.5-.5h1l.5-.5.5-.5h1l.5-.5.5-.5h1l.5-.5.5-.5h2l.5-.5.5-.5h2l.5-.5.5-.5h1l.5-.5.5-.5h2l.5-.5.5-.5h2l.5-.5.5-.5h3l.5-.5.5-.5h3l.5-.5.5-.5h2l.5-.5.5-.5h5l.5-.5.5-.5h4l.5-.5.5-.5h5l.5-.5.5-.5h36l.5.5.5.5h4l.5.5.5.5h5l.5.5.5.5h4l.5.5.5.5h3l.5.5.5.5h3l.5.5.5.5h3l.5.5.5.5h2l.5.5.5.5h2l.5.5.5.5h1l.5.5.5.5h2l.5.5.5.5h1l.5.5.5.5h1l.5.5.5.5h2l.5.5.5.5h1l.5.5.5.5h1l.5.5.5.5h1l.5.5.5.5h1l.5.5.5.5h1l.5.5.5.5h1l.5.5.5.5.5.5.5.5h1l.5.5.5.5h1l.5.5.5.5.5.5.5.5h1l.5.5.5.5.5.5.5.5h1l.5.5.5.5.5.5.5.5h1l.5.5.5.5.5.5.5.5.5.5.5.5h1l.5.5.5.5.5.5.5.5.5.5.5.5.5.5.5.5h1l.5.5.5.5.5.5.5.5.5.5.5.5.5.5.5.5.5.5.5.5.5.5.5.5h1l.5.5.5.5.5.5v1l.5.5.5.5.5.5.5.5.5.5.5.5.5.5.5.5.5.5.5.5.5.5.5.5.5.5.5.5.5.5.5.5.5.5.5.5.5.5.5.5.5.5.5.5v1l.5.5.5.5.5.5.5.5.5.5.5.5.5.5.5.5v1l.5.5.5.5.5.5.5.5.5.5.5.5v1l.5.5.5.5.5.5.5.5v1l.5.5.5.5v1l.5.5.5.5.5.5.5.5v1l.5.5.5.5.5.5.5.5v1l.5.5.5.5v1l.5.5.5.5v1l.5.5.5.5.5.5.5.5v2l.5.5.5.5v1l.5.5.5.5v1l.5.5.5.5v1l.5.5.5.5v1l.5.5.5.5v1l.5.5.5.5v2l.5.5.5.5v2l.5.5.5.5v1l.5.5.5.5v2l.5.5.5.5v2l.5.5.5.5v2l.5.5.5.5v3l.5.5.5.5v3l.5.5.5.5v4l.5.5.5.5v6l.5.5.5.5v9l.5.5.5.5v21l-.5.5-.5.5v9l-.5.5-.5.5v5l-.5.5-.5.5v5l-.5.5-.5.5v2l-.5.5-.5.5v3l-.5.5-.5.5v3l-.5.5-.5.5v2l-.5.5-.5.5v2l-.5.5-.5.5v2l-.5.5-.5.5v2l-.5.5-.5.5-.5.5-.5.5v2l-.5.5-.5.5v1l-.5.5-.5.5v2l-.5.5-.5.5v1l-.5.5-.5.5-.5.5-.5.5v1l-.5.5-.5.5v1l-.5.5-.5.5v1l-.5.5-.5.5v1l-.5.5-.5.5v1l-.5.5-.5.5-.5.5-.5.5v1l-.5.5-.5.5v1l-.5.5-.5.5-.5.5-.5.5v1l-.5.5-.5.5-.5.5-.5.5v1l-.5.5-.5.5-.5.5-.5.5-.5.5-.5.5v1l-.5.5-.5.5-.5.5-.5.5-.5.5-.5.5-.5.5-.5.5-.5.5-.5.5v1l-.5.5-.5.5-.5.5-.5.5-.5.5-.5.5-.5.5-.5.5-.5.5-.5.5-.5.5-.5.5-.5.5-.5.5-.5.5-.5.5-.5.5-.5.5-.5.5-.5.5-.5.5-.5.5-.5.5-.5.5-.5.5-.5.5-.5.5-.5.5-.5.5-.5.5-.5.5-.5.5-.5.5-.5.5-.5.5-.5.5-.5.5h-1l-.5.5-.5.5-.5.5-.5.5-.5.5-.5.5h-1l-.5.5-.5.5-.5.5-.5.5-.5.5-.5.5-.5.5-.5.5h-1l-.5.5-.5.5-.5.5-.5.5h-1l-.5.5-.5.5h-1l-.5.5-.5.5-.5.5-.5.5h-1l-.5.5-.5.5h-1l-.5.5-.5.5-.5.5-.5.5h-1l-.5.5-.5.5h-1l-.5.5-.5.5h-1l-.5.5-.5.5h-1l-.5.5-.5.5h-1l-.5.5-.5.5h-1l-.5.5-.5.5h-1l-.5.5-.5.5h-1l-.5.5-.5.5h-2l-.5.5-.5.5h-1l-.5.5-.5.5h-1l-.5.5-.5.5h-3l-.5.5-.5.5h-1l-.5.5-.5.5h-2l-.5.5-.5.5h-2l-.5.5-.5.5h-3l-.5.5-.5.5h-3l-.5.5-.5.5h-4l-.5.5-.5.5h-5l-.5.5-.5.5h-9l-.5.5-.5.5ZM284,421.5h-17l-.5-.5-.5-.5h-3l-.5-.5-.5-.5h-2l-.5-.5-.5-.5h-1l-.5-.5-.5-.5h-1l-.5-.5-.5-.5h-1l-.5-.5-.5-.5h-1l-.5-.5-.5-.5-.5-.5-.5-.5-.5-.5-.5-.5-.5-.5-.5-.5-.5-.5-.5-.5-.5-.5-.5-.5-.5-.5-.5-.5-.5-.5-.5-.5-.5-.5-.5-.5-.5-.5-.5-.5-.5-.5-.5-.5-.5-.5-.5-.5-.5-.5-.5-.5-.5-.5-.5-.5-.5-.5-.5-.5-.5-.5-.5-.5-.5-.5-.5-.5h-1l-.5-.5-.5-.5-.5-.5-.5-.5-.5-.5-.5-.5-.5-.5-.5-.5-.5-.5-.5-.5-.5-.5-.5-.5-.5-.5-.5-.5-.5-.5-.5-.5-.5-.5-.5-.5-.5-.5-.5-.5-.5-.5-.5-.5-.5-.5-.5-.5-.5-.5-.5-.5-.5-.5-.5-.5-.5-.5-.5-.5-.5-.5-.5-.5-.5-.5-.5-.5-.5-.5-.5-.5-.5-.5-.5-.5h-1l-.5-.5v-1l-.5-.5h-1l-.5-.5-.5-.5-.5-.5-.5-.5-.5-.5-.5-.5-.5-.5-.5-.5-.5-.5-.5-.5-.5-.5-.5-.5-.5-.5-.5-.5-.5-.5-.5-.5-.5-.5-.5-.5-.5-.5-.5-.5-.5-.5-.5-.5-.5-.5-.5-.5-.5-.5-.5-.5-.5-.5-.5-.5-.5-.5-.5-.5-.5-.5-.5-.5-.5-.5-.5-.5-.5-.5-.5-.5-.5-.5-.5-.5-.5-.5-.5-.5h-1l-.5-.5v-1l-.5-.5-.5-.5-.5-.5-.5-.5-.5-.5h-1l-.5-.5v-1l-.5-.5h-1l-.5-.5-.5-.5-.5-.5-.5-.5-.5-.5-.5-.5-.5-.5-.5-.5-.5-.5-.5-.5-.5-.5-.5-.5-.5-.5-.5-.5-.5-.5-.5-.5-.5-.5-.5-.5-.5-.5-.5-.5-.5-.5-.5-.5-.5-.5-.5-.5-.5-.5-.5-.5-.5-.5-.5-.5-.5-.5-.5-.5-.5-.5-.5-.5-.5-.5-.5-.5h-1l-.5-.5-.5-.5-.5-.5-.5-.5h-1l-.5.5-.5.5-.5.5-.5.5-.5.5-.5.5-.5.5-.5.5-.5.5-.5.5-.5.5-.5.5-.5.5-.5.5-.5.5-.5.5-.5.5-.5.5-.5.5-.5.5-.5.5-.5.5-.5.5v1l-.5.5-.5.5-.5.5-.5.5-.5.5-.5.5-.5.5-.5.5-.5.5-.5.5-.5.5-.5.5-.5.5-.5.5-.5.5-.5.5-.5.5-.5.5-.5.5-.5.5-.5.5-.5.5-.5.5-.5.5-.5.5-.5.5-.5.5-.5.5-.5.5-.5.5-.5.5-.5.5-.5.5-.5.5v1l-.5.5h-1l-.5.5v1l-.5.5-.5.5-.5.5-.5.5-.5.5-.5.5-.5.5-.5.5-.5.5-.5.5-.5.5-.5.5-.5.5-.5.5-.5.5-.5.5-.5.5-.5.5-.5.5-.5.5-.5.5-.5.5-.5.5-.5.5-.5.5h-1l-.5.5-.5.5-.5.5-.5.5-.5.5-.5.5-.5.5-.5.5h-1l-.5.5-.5.5-.5.5-.5.5h-1l-.5.5-.5.5h-1l-.5.5-.5.5h-1l-.5.5-.5.5h-1l-.5.5-.5.5h-2l-.5.5-.5.5h-1l-.5.5-.5.5h-2l-.5.5-.5.5h-3l-.5.5-.5.5h-5l-.5.5-.5.5h-15l-.5-.5-.5-.5h-7l-.5-.5-.5-.5h-2l-.5-.5-.5-.5h-2l-.5-.5-.5-.5h-2l-.5-.5-.5-.5h-1l-.5-.5-.5-.5h-2l-.5-.5-.5-.5h-1l-.5-.5-.5-.5-.5-.5-.5-.5h-1l-.5-.5-.5-.5h-1l-.5-.5-.5-.5-.5-.5-.5-.5h-1l-.5-.5-.5-.5-.5-.5-.5-.5-.5-.5-.5-.5-.5-.5-.5-.5-.5-.5-.5-.5-.5-.5-.5-.5-.5-.5-.5-.5-.5-.5-.5-.5-.5-.5-.5-.5-.5-.5-.5-.5-.5-.5v-1l-.5-.5-.5-.5-.5-.5-.5-.5v-1l-.5-.5-.5-.5-.5-.5-.5-.5-.5-.5-.5-.5v-1l-.5-.5-.5-.5v-1l-.5-.5-.5-.5v-1l-.5-.5-.5-.5-.5-.5-.5-.5v-2l-.5-.5-.5-.5v-1l-.5-.5-.5-.5v-1l-.5-.5-.5-.5v-1l-.5-.5-.5-.5v-2l-.5-.5-.5-.5v-2l-.5-.5-.5-.5v-3l-.5-.5-.5-.5v-3l-.5-.5-.5-.5v-4l-.5-.5-.5-.5v-4l-.5-.5-.5-.5v-7l-.5-.5-.5-.5V41l.5-.5.5-.5v-3l.5-.5.5-.5v-2l.5-.5.5-.5v-1l.5-.5.5-.5v-1l.5-.5.5-.5v-1l.5-.5.5-.5v-1l.5-.5.5-.5.5-.5.5-.5.5-.5.5-.5.5-.5.5-.5v-1l.5-.5h1l.5-.5.5-.5.5-.5.5-.5.5-.5.5-.5.5-.5.5-.5h1l.5-.5.5-.5h1l.5-.5.5-.5.5-.5.5-.5h1l.5-.5.5-.5h2l.5-.5.5-.5h2l.5-.5.5-.5h3l.5-.5.5-.5h12l.5.5.5.5h3l.5.5.5.5h2l.5.5.5.5h2l.5.5.5.5.5.5.5.5h1l.5.5.5.5h1l.5.5.5.5.5.5.5.5.5.5.5.5h1l.5.5.5.5.5.5.5.5.5.5.5.5.5.5.5.5.5.5v1l.5.5.5.5.5.5.5.5.5.5.5.5v1l.5.5.5.5v1l.5.5.5.5v1l.5.5.5.5v2l.5.5.5.5v4l.5.5.5.5v264l.5.5h1l.5-.5v-1l.5-.5.5-.5.5-.5.5-.5.5-.5.5-.5.5-.5.5-.5.5-.5.5-.5.5-.5.5-.5.5-.5.5-.5.5-.5.5-.5.5-.5.5-.5.5-.5.5-.5.5-.5.5-.5v-1l.5-.5.5-.5.5-.5.5-.5.5-.5.5-.5.5-.5.5-.5.5-.5.5-.5.5-.5.5-.5.5-.5.5-.5.5-.5.5-.5.5-.5.5-.5v-1l.5-.5h1l.5-.5v-1l.5-.5.5-.5.5-.5.5-.5.5-.5.5-.5.5-.5.5-.5.5-.5.5-.5.5-.5.5-.5.5-.5.5-.5.5-.5.5-.5.5-.5.5-.5.5-.5.5-.5.5-.5.5-.5.5-.5.5-.5v-1l.5-.5.5-.5.5-.5.5-.5.5-.5.5-.5.5-.5.5-.5.5-.5.5-.5.5-.5.5-.5.5-.5.5-.5.5-.5.5-.5.5-.5.5-.5.5-.5.5-.5.5-.5.5-.5.5-.5.5-.5v-1l.5-.5.5-.5.5-.5.5-.5.5-.5.5-.5.5-.5.5-.5.5-.5.5-.5.5-.5.5-.5.5-.5.5-.5.5-.5.5-.5.5-.5.5-.5.5-.5.5-.5.5-.5.5-.5.5-.5.5-.5v-1l.5-.5.5-.5.5-.5.5-.5.5-.5.5-.5.5-.5.5-.5.5-.5.5-.5.5-.5.5-.5.5-.5.5-.5.5-.5.5-.5.5-.5.5-.5.5-.5.5-.5.5-.5.5-.5.5-.5.5-.5.5-.5.5-.5.5-.5.5-.5.5-.5.5-.5v-1l.5-.5.5-.5.5-.5.5-.5.5-.5.5-.5.5-.5.5-.5.5-.5.5-.5.5-.5.5-.5.5-.5.5-.5.5-.5.5-.5.5-.5.5-.5.5-.5.5-.5.5-.5.5-.5.5-.5.5-.5v-1l.5-.5.5-.5.5-.5.5-.5.5-.5.5-.5.5-.5.5-.5.5-.5.5-.5.5-.5.5-.5.5-.5.5-.5.5-.5.5-.5.5-.5.5-.5.5-.5.5-.5.5-.5.5-.5v-1l.5-.5.5-.5.5-.5.5-.5.5-.5.5-.5.5-.5.5-.5.5-.5.5-.5.5-.5.5-.5.5-.5.5-.5.5-.5.5-.5.5-.5.5-.5.5-.5.5-.5.5-.5.5-.5.5-.5.5-.5.5-.5.5-.5v-1l.5-.5.5-.5.5-.5.5-.5.5-.5.5-.5.5-.5.5-.5.5-.5.5-.5.5-.5.5-.5.5-.5.5-.5.5-.5.5-.5.5-.5.5-.5.5-.5.5-.5.5-.5.5-.5.5-.5.5-.5v-1l.5-.5.5-.5.5-.5.5-.5.5-.5.5-.5.5-.5.5-.5.5-.5.5-.5.5-.5.5-.5.5-.5.5-.5.5-.5.5-.5.5-.5.5-.5.5-.5.5-.5.5-.5.5-.5.5-.5.5-.5.5-.5.5-.5.5-.5.5-.5v-1l.5-.5.5-.5.5-.5.5-.5.5-.5.5-.5.5-.5.5-.5.5-.5.5-.5.5-.5.5-.5.5-.5.5-.5.5-.5.5-.5.5-.5.5-.5.5-.5.5-.5.5-.5.5-.5.5-.5.5-.5v-1l.5-.5.5-.5.5-.5.5-.5.5-.5.5-.5.5-.5.5-.5.5-.5.5-.5.5-.5.5-.5.5-.5.5-.5.5-.5.5-.5.5-.5.5-.5.5-.5.5-.5.5-.5.5-.5.5-.5.5-.5.5-.5.5-.5v-1l.5-.5.5-.5.5-.5.5-.5.5-.5.5-.5.5-.5.5-.5.5-.5h1l.5-.5.5-.5.5-.5.5-.5h1l.5-.5.5-.5h1l.5-.5.5-.5h1l.5-.5.5-.5h1l.5-.5.5-.5h2l.5-.5.5-.5h2l.5-.5.5-.5h14l.5.5.5.5h3l.5.5.5.5h1l.5.5.5.5h1l.5.5.5.5h2l.5.5.5.5.5.5.5.5h1l.5.5.5.5.5.5.5.5.5.5.5.5h1l.5.5.5.5.5.5.5.5.5.5.5.5.5.5.5.5.5.5v1l.5.5.5.5.5.5.5.5v1l.5.5.5.5.5.5.5.5v1l.5.5.5.5v2l.5.5.5.5v1l.5.5.5.5v3l.5.5.5.5v17l-.5.5-.5.5v2l-.5.5-.5.5v2l-.5.5-.5.5v2l-.5.5-.5.5-.5.5-.5.5v1l-.5.5-.5.5v1l-.5.5-.5.5-.5.5-.5.5v1l-.5.5-.5.5-.5.5-.5.5-.5.5-.5.5-.5.5-.5.5-.5.5-.5.5v1l-.5.5-.5.5-.5.5h-1l-.5.5-.5.5-.5.5-.5.5-.5.5-.5.5-.5.5-.5.5-.5.5-.5.5-.5.5-.5.5-.5.5v1l-.5.5-.5.5-.5.5-.5.5-.5.5-.5.5-.5.5-.5.5-.5.5-.5.5-.5.5-.5.5-.5.5-.5.5-.5.5-.5.5-.5.5-.5.5-.5.5-.5.5-.5.5-.5.5-.5.5-.5.5-.5.5-.5.5-.5.5-.5.5-.5.5-.5.5-.5.5-.5.5-.5.5-.5.5-.5.5-.5.5-.5.5-.5.5-.5.5-.5.5-.5.5-.5.5-.5.5-.5.5-.5.5-.5.5-.5.5-.5.5v1l-.5.5-.5.5-.5.5-.5.5-.5.5-.5.5-.5.5-.5.5-.5.5-.5.5-.5.5-.5.5-.5.5-.5.5-.5.5-.5.5-.5.5-.5.5-.5.5-.5.5-.5.5-.5.5-.5.5-.5.5-.5.5-.5.5-.5.5-.5.5-.5.5-.5.5-.5.5-.5.5-.5.5-.5.5-.5.5-.5.5-.5.5-.5.5v1l-.5.5-.5.5-.5.5-.5.5-.5.5-.5.5-.5.5-.5.5-.5.5-.5.5-.5.5-.5.5-.5.5-.5.5-.5.5-.5.5-.5.5-.5.5-.5.5-.5.5-.5.5-.5.5-.5.5-.5.5-.5.5-.5.5-.5.5-.5.5-.5.5-.5.5-.5.5-.5.5-.5.5-.5.5-.5.5-.5.5-.5.5-.5.5v1l-.5.5h-1l-.5.5v1l-.5.5-.5.5-.5.5-.5.5-.5.5-.5.5-.5.5-.5.5-.5.5-.5.5-.5.5-.5.5-.5.5-.5.5-.5.5-.5.5-.5.5-.5.5-.5.5-.5.5v2l.5.5.5.5.5.5.5.5.5.5.5.5.5.5.5.5.5.5.5.5.5.5.5.5.5.5.5.5.5.5.5.5.5.5.5.5.5.5.5.5.5.5.5.5.5.5.5.5.5.5.5.5.5.5.5.5.5.5h1l.5.5v1l.5.5h1l.5.5.5.5.5.5.5.5.5.5.5.5.5.5.5.5.5.5.5.5.5.5.5.5.5.5.5.5.5.5.5.5.5.5.5.5.5.5.5.5.5.5.5.5.5.5.5.5.5.5.5.5.5.5.5.5.5.5.5.5.5.5.5.5.5.5.5.5h1l.5.5.5.5.5.5.5.5.5.5.5.5.5.5.5.5.5.5.5.5.5.5.5.5.5.5.5.5.5.5.5.5.5.5.5.5.5.5.5.5.5.5.5.5.5.5.5.5.5.5.5.5.5.5.5.5.5.5.5.5.5.5.5.5.5.5.5.5.5.5.5.5.5.5.5.5.5.5.5.5.5.5.5.5.5.5.5.5.5.5.5.5h1l.5.5.5.5.5.5.5.5.5.5.5.5.5.5.5.5.5.5.5.5.5.5.5.5.5.5.5.5.5.5.5.5.5.5.5.5.5.5.5.5.5.5.5.5.5.5.5.5.5.5.5.5.5.5.5.5.5.5.5.5.5.5.5.5.5.5.5.5h1l.5.5.5.5.5.5.5.5.5.5.5.5.5.5.5.5.5.5.5.5.5.5.5.5.5.5.5.5.5.5.5.5.5.5.5.5.5.5v1l.5.5.5.5.5.5.5.5v1l.5.5.5.5.5.5.5.5v1l.5.5.5.5v1l.5.5.5.5v2l.5.5.5.5v2l.5.5.5.5v4l.5.5.5.5v9l-.5.5-.5.5v3l-.5.5-.5.5v2l-.5.5-.5.5v2l-.5.5-.5.5v1l-.5.5-.5.5v1l-.5.5-.5.5-.5.5-.5.5v1l-.5.5-.5.5-.5.5-.5.5-.5.5-.5.5-.5.5-.5.5-.5.5-.5.5-.5.5-.5.5-.5.5-.5.5-.5.5-.5.5-.5.5h-1l-.5.5-.5.5h-1l-.5.5-.5.5-.5.5-.5.5h-1l-.5.5-.5.5h-2l-.5.5-.5.5h-3l-.5.5-.5.5ZM705,421.5h-15l-.5-.5-.5-.5h-3l-.5-.5-.5-.5h-2l-.5-.5-.5-.5h-1l-.5-.5-.5-.5h-2l-.5-.5-.5-.5-.5-.5-.5-.5h-1l-.5-.5-.5-.5-.5-.5-.5-.5-.5-.5-.5-.5-.5-.5-.5-.5-.5-.5-.5-.5-.5-.5-.5-.5-.5-.5-.5-.5-.5-.5-.5-.5-.5-.5v-1l-.5-.5-.5-.5-.5-.5-.5-.5v-1l-.5-.5-.5-.5v-1l-.5-.5-.5-.5v-1l-.5-.5-.5-.5v-3l-.5-.5-.5-.5v-4l-.5-.5-.5-.5v-145l.5-.5.5-.5v-7l.5-.5.5-.5v-6l.5-.5.5-.5v-3l.5-.5.5-.5v-3l.5-.5.5-.5v-3l.5-.5.5-.5v-2l.5-.5.5-.5v-3l.5-.5.5-.5v-2l.5-.5.5-.5v-1l.5-.5.5-.5v-2l.5-.5.5-.5v-1l.5-.5.5-.5v-1l.5-.5.5-.5v-2l.5-.5.5-.5v-1l.5-.5.5-.5v-1l.5-.5.5-.5v-1l.5-.5.5-.5v-1l.5-.5.5-.5.5-.5.5-.5v-1l.5-.5.5-.5v-1l.5-.5.5-.5.5-.5.5-.5v-1l.5-.5.5-.5v-1l.5-.5.5-.5.5-.5.5-.5.5-.5.5-.5v-1l.5-.5.5-.5.5-.5.5-.5.5-.5.5-.5v-1l.5-.5.5-.5.5-.5.5-.5.5-.5.5-.5.5-.5.5-.5.5-.5.5-.5v-1l.5-.5.5-.5.5-.5.5-.5.5-.5.5-.5.5-.5.5-.5.5-.5.5-.5.5-.5.5-.5.5-.5.5-.5.5-.5.5-.5.5-.5.5-.5.5-.5.5-.5.5-.5.5-.5.5-.5.5-.5.5-.5h1l.5-.5.5-.5.5-.5.5-.5.5-.5.5-.5.5-.5.5-.5.5-.5.5-.5h1l.5-.5.5-.5.5-.5.5-.5.5-.5.5-.5h1l.5-.5.5-.5.5-.5.5-.5h1l.5-.5.5-.5.5-.5.5-.5h1l.5-.5.5-.5.5-.5.5-.5h1l.5-.5.5-.5h1l.5-.5.5-.5.5-.5.5-.5h1l.5-.5.5-.5h1l.5-.5.5-.5h1l.5-.5.5-.5h1l.5-.5.5-.5h1l.5-.5.5-.5h2l.5-.5.5-.5h1l.5-.5.5-.5h2l.5-.5.5-.5h1l.5-.5.5-.5h3l.5-.5.5-.5h1l.5-.5.5-.5h3l.5-.5.5-.5h3l.5-.5.5-.5h4l.5-.5.5-.5h3l.5-.5.5-.5h8l.5-.5.5-.5h66l.5.5.5.5h2l.5.5.5.5h2l.5.5.5.5h1l.5.5.5.5h2l.5.5.5.5h1l.5.5.5.5.5.5.5.5.5.5.5.5h1l.5.5.5.5.5.5.5.5.5.5.5.5.5.5.5.5.5.5.5.5.5.5.5.5.5.5.5.5.5.5v1l.5.5.5.5v1l.5.5.5.5.5.5.5.5v1l.5.5.5.5v1l.5.5.5.5v3l.5.5.5.5v3l.5.5.5.5v11l-.5.5-.5.5v4l-.5.5-.5.5v2l-.5.5-.5.5v1l-.5.5-.5.5v1l-.5.5-.5.5v1l-.5.5-.5.5-.5.5-.5.5v1l-.5.5-.5.5-.5.5-.5.5-.5.5-.5.5-.5.5-.5.5-.5.5-.5.5-.5.5-.5.5-.5.5-.5.5-.5.5-.5.5-.5.5h-1l-.5.5-.5.5-.5.5-.5.5h-1l-.5.5-.5.5h-1l-.5.5-.5.5h-2l-.5.5-.5.5h-3l-.5.5-.5.5h-52l-.5.5-.5.5h-12l-.5.5-.5.5h-4l-.5.5-.5.5h-3l-.5.5-.5.5h-1l-.5.5-.5.5h-2l-.5.5-.5.5h-1l-.5.5-.5.5h-1l-.5.5-.5.5h-1l-.5.5-.5.5h-1l-.5.5-.5.5h-1l-.5.5-.5.5-.5.5-.5.5-.5.5-.5.5h-1l-.5.5-.5.5-.5.5-.5.5-.5.5-.5.5-.5.5-.5.5-.5.5-.5.5-.5.5-.5.5-.5.5-.5.5-.5.5-.5.5-.5.5-.5.5-.5.5v1l-.5.5-.5.5-.5.5-.5.5-.5.5-.5.5v1l-.5.5-.5.5-.5.5-.5.5v1l-.5.5-.5.5v1l-.5.5-.5.5v1l-.5.5-.5.5v1l-.5.5-.5.5v3l-.5.5-.5.5v2l-.5.5-.5.5v4l-.5.5-.5.5v145l-.5.5-.5.5v5l-.5.5-.5.5v2l-.5.5-.5.5v2l-.5.5-.5.5v1l-.5.5-.5.5v1l-.5.5-.5.5v1l-.5.5-.5.5-.5.5-.5.5-.5.5-.5.5v1l-.5.5-.5.5-.5.5-.5.5-.5.5-.5.5-.5.5h-1l-.5.5-.5.5-.5.5-.5.5-.5.5-.5.5h-1l-.5.5-.5.5-.5.5-.5.5h-1l-.5.5-.5.5h-1l-.5.5-.5.5h-2l-.5.5-.5.5h-3l-.5.5-.5.5ZM482.5,347l.5-.5h6l.5-.5.5-.5h3l.5-.5.5-.5h3l.5-.5.5-.5h2l.5-.5.5-.5h2l.5-.5.5-.5h1l.5-.5.5-.5h1l.5-.5.5-.5h1l.5-.5.5-.5h1l.5-.5.5-.5h1l.5-.5.5-.5h1l.5-.5.5-.5.5-.5.5-.5h1l.5-.5.5-.5.5-.5.5-.5h1l.5-.5.5-.5.5-.5.5-.5.5-.5.5-.5.5-.5.5-.5.5-.5.5-.5h1l.5-.5.5-.5.5-.5.5-.5.5-.5.5-.5.5-.5.5-.5.5-.5.5-.5.5-.5.5-.5.5-.5v-1l.5-.5.5-.5.5-.5.5-.5.5-.5.5-.5.5-.5.5-.5v-1l.5-.5.5-.5.5-.5.5-.5v-1l.5-.5.5-.5.5-.5.5-.5v-1l.5-.5.5-.5v-1l.5-.5.5-.5.5-.5.5-.5v-2l.5-.5.5-.5v-1l.5-.5.5-.5v-1l.5-.5.5-.5v-2l.5-.5.5-.5v-2l.5-.5.5-.5v-2l.5-.5.5-.5v-3l.5-.5.5-.5v-7l.5-.5.5-.5v-14l-.5-.5-.5-.5v-7l-.5-.5-.5-.5v-3l-.5-.5-.5-.5v-3l-.5-.5-.5-.5v-2l-.5-.5-.5-.5v-2l-.5-.5-.5-.5v-1l-.5-.5-.5-.5v-1l-.5-.5-.5-.5v-1l-.5-.5-.5-.5v-1l-.5-.5-.5-.5v-1l-.5-.5-.5-.5-.5-.5-.5-.5v-1l-.5-.5-.5-.5-.5-.5-.5-.5v-1l-.5-.5-.5-.5-.5-.5-.5-.5-.5-.5-.5-.5v-1l-.5-.5-.5-.5-.5-.5-.5-.5-.5-.5-.5-.5-.5-.5-.5-.5-.5-.5-.5-.5-.5-.5-.5-.5-.5-.5-.5-.5-.5-.5-.5-.5-.5-.5-.5-.5-.5-.5-.5-.5-.5-.5-.5-.5-.5-.5h-1l-.5-.5-.5-.5-.5-.5-.5-.5-.5-.5-.5-.5h-1l-.5-.5-.5-.5-.5-.5-.5-.5h-1l-.5-.5-.5-.5h-1l-.5-.5-.5-.5h-1l-.5-.5-.5-.5-.5-.5-.5-.5h-2l-.5-.5-.5-.5h-1l-.5-.5-.5-.5h-1l-.5-.5-.5-.5h-2l-.5-.5-.5-.5h-2l-.5-.5-.5-.5h-2l-.5-.5-.5-.5h-4l-.5-.5-.5-.5h-7l-.5-.5-.5-.5h-14l-.5.5-.5.5h-7l-.5.5-.5.5h-4l-.5.5-.5.5h-3l-.5.5-.5.5h-2l-.5.5-.5.5h-1l-.5.5-.5.5h-2l-.5.5-.5.5h-1l-.5.5-.5.5h-1l-.5.5-.5.5h-1l-.5.5-.5.5h-1l-.5.5-.5.5h-1l-.5.5-.5.5-.5.5-.5.5h-1l-.5.5-.5.5-.5.5-.5.5h-1l-.5.5-.5.5-.5.5-.5.5-.5.5-.5.5-.5.5-.5.5h-1l-.5.5-.5.5-.5.5-.5.5-.5.5-.5.5-.5.5-.5.5-.5.5-.5.5-.5.5-.5.5-.5.5-.5.5-.5.5-.5.5-.5.5-.5.5-.5.5v1l-.5.5-.5.5-.5.5-.5.5v1l-.5.5-.5.5-.5.5-.5.5v1l-.5.5-.5.5-.5.5-.5.5v1l-.5.5-.5.5v1l-.5.5-.5.5-.5.5-.5.5v1l-.5.5-.5.5v1l-.5.5-.5.5v2l-.5.5-.5.5v1l-.5.5-.5.5v2l-.5.5-.5.5v3l-.5.5-.5.5v4l-.5.5-.5.5v4l-.5.5-.5.5v15l.5.5.5.5v7l.5.5.5.5v3l.5.5.5.5v3l.5.5.5.5v2l.5.5.5.5v2l.5.5.5.5v1l.5.5.5.5v2l.5.5.5.5.5.5.5.5v1l.5.5.5.5v1l.5.5.5.5.5.5.5.5v1l.5.5.5.5v1l.5.5.5.5.5.5.5.5v1l.5.5.5.5.5.5.5.5.5.5.5.5.5.5.5.5.5.5.5.5v1l.5.5.5.5.5.5h1l.5.5.5.5.5.5.5.5.5.5.5.5.5.5.5.5.5.5.5.5.5.5.5.5.5.5.5.5.5.5.5.5h1l.5.5.5.5.5.5.5.5.5.5.5.5h1l.5.5.5.5h1l.5.5.5.5.5.5.5.5h2l.5.5.5.5.5.5.5.5h1l.5.5.5.5h1l.5.5.5.5h2l.5.5.5.5h1l.5.5.5.5h2l.5.5.5.5h3l.5.5.5.5h4l.5.5.5.5h4l.5.5.5.5h18l.5-.5ZM1040.5,347l.5-.5h8l.5-.5.5-.5h3l.5-.5.5-.5h2l.5-.5.5-.5h3l.5-.5.5-.5h2l.5-.5.5-.5h1l.5-.5.5-.5h1l.5-.5.5-.5h1l.5-.5.5-.5h1l.5-.5.5-.5h1l.5-.5.5-.5h1l.5-.5.5-.5.5-.5.5-.5h1l.5-.5.5-.5.5-.5.5-.5h1l.5-.5.5-.5.5-.5.5-.5.5-.5.5-.5h1l.5-.5.5-.5.5-.5.5-.5.5-.5.5-.5.5-.5.5-.5.5-.5.5-.5.5-.5.5-.5.5-.5.5-.5.5-.5.5-.5.5-.5.5-.5.5-.5.5-.5.5-.5v-1l.5-.5.5-.5.5-.5.5-.5.5-.5.5-.5v-1l.5-.5.5-.5.5-.5.5-.5v-1l.5-.5.5-.5.5-.5.5-.5v-1l.5-.5.5-.5v-1l.5-.5.5-.5v-1l.5-.5.5-.5v-1l.5-.5.5-.5v-1l.5-.5.5-.5v-2l.5-.5.5-.5v-2l.5-.5.5-.5v-2l.5-.5.5-.5v-4l.5-.5.5-.5v-3l.5-.5.5-.5v-21l-.5-.5-.5-.5v-4l-.5-.5-.5-.5v-4l-.5-.5-.5-.5v-2l-.5-.5-.5-.5v-2l-.5-.5-.5-.5v-2l-.5-.5-.5-.5v-2l-.5-.5-.5-.5v-1l-.5-.5-.5-.5v-1l-.5-.5-.5-.5-.5-.5-.5-.5v-1l-.5-.5-.5-.5v-1l-.5-.5-.5-.5-.5-.5-.5-.5-.5-.5-.5-.5v-1l-.5-.5-.5-.5-.5-.5-.5-.5v-1l-.5-.5-.5-.5-.5-.5-.5-.5-.5-.5-.5-.5-.5-.5-.5-.5-.5-.5-.5-.5-.5-.5-.5-.5-.5-.5-.5-.5-.5-.5-.5-.5-.5-.5-.5-.5-.5-.5-.5-.5-.5-.5-.5-.5-.5-.5-.5-.5-.5-.5h-1l-.5-.5-.5-.5-.5-.5-.5-.5-.5-.5-.5-.5h-1l-.5-.5-.5-.5-.5-.5-.5-.5h-1l-.5-.5-.5-.5h-1l-.5-.5-.5-.5h-1l-.5-.5-.5-.5-.5-.5-.5-.5h-1l-.5-.5-.5-.5h-1l-.5-.5-.5-.5h-2l-.5-.5-.5-.5h-1l-.5-.5-.5-.5h-3l-.5-.5-.5-.5h-2l-.5-.5-.5-.5h-4l-.5-.5-.5-.5h-8l-.5-.5-.5-.5h-13l-.5.5-.5.5-.5-.5-.5-.5h-1l-.5.5-.5.5h-4l-.5.5-.5.5h-4l-.5.5-.5.5h-3l-.5.5-.5.5h-2l-.5.5-.5.5h-1l-.5.5-.5.5h-2l-.5.5-.5.5h-1l-.5.5-.5.5h-1l-.5.5-.5.5h-1l-.5.5-.5.5h-1l-.5.5-.5.5h-1l-.5.5-.5.5-.5.5-.5.5h-1l-.5.5-.5.5-.5.5-.5.5-.5.5-.5.5h-1l-.5.5-.5.5-.5.5-.5.5-.5.5-.5.5-.5.5-.5.5h-1l-.5.5-.5.5-.5.5-.5.5-.5.5-.5.5-.5.5-.5.5-.5.5-.5.5-.5.5v1l-.5.5-.5.5-.5.5-.5.5-.5.5-.5.5-.5.5-.5.5v1l-.5.5-.5.5-.5.5-.5.5-.5.5-.5.5v1l-.5.5-.5.5v1l-.5.5-.5.5v1l-.5.5-.5.5-.5.5-.5.5v1l-.5.5-.5.5v1l-.5.5-.5.5v2l-.5.5-.5.5v1l-.5.5-.5.5v2l-.5.5-.5.5v2l-.5.5-.5.5v2l-.5.5-.5.5v5l-.5.5-.5.5v24l.5.5.5.5v4l.5.5.5.5v3l.5.5.5.5v2l.5.5.5.5v1l.5.5.5.5v2l.5.5.5.5v2l.5.5.5.5v1l.5.5.5.5v1l.5.5.5.5v1l.5.5.5.5.5.5.5.5v1l.5.5.5.5.5.5.5.5v1l.5.5.5.5.5.5.5.5v1l.5.5.5.5.5.5.5.5.5.5.5.5.5.5.5.5.5.5.5.5.5.5.5.5.5.5.5.5.5.5.5.5.5.5.5.5.5.5.5.5.5.5.5.5.5.5.5.5.5.5.5.5.5.5h1l.5.5.5.5.5.5.5.5.5.5.5.5.5.5.5.5h1l.5.5.5.5h1l.5.5.5.5.5.5.5.5h1l.5.5.5.5h1l.5.5.5.5h1l.5.5.5.5h1l.5.5.5.5h2l.5.5.5.5h1l.5.5.5.5h2l.5.5.5.5h3l.5.5.5.5h4l.5.5.5.5h4l.5.5.5.5h16l.5-.5Z"/>
</svg>